<svg width="48" height="48" viewBox="0 0 48 48" fill="none" xmlns="http://www.w3.org/2000/svg">
<path d="M7 34H16V36C16 37.1046 15.1046 38 14 38H9C7.89543 38 7 37.1046 7 36V34Z" fill="#00662E"/>
<path d="M32 34H41V36C41 37.1046 40.1046 38 39 38H34C32.8954 38 32 37.1046 32 36V34Z" fill="#00662E"/>
<rect x="8" y="18" width="6" height="4" rx="2" fill="#00AB4E"/>
<rect x="34" y="18" width="6" height="4" rx="2" fill="#00AB4E"/>
<path d="M11.7798 14.7367C12.375 11.9732 14.8184 10 17.6453 10H30.3547C33.1816 10 35.625 11.9732 36.2202 14.7367L38 23H10L11.7798 14.7367Z" fill="#00883E"/>
<path d="M13.7569 15.2155C14.1308 13.3458 15.7725 12 17.6792 12H30.3208C32.2275 12 33.8692 13.3458 34.2431 15.2155L35.2823 20.4116C35.6536 22.268 34.2337 24 32.3406 24H15.6594C13.7663 24 12.3464 22.268 12.7177 20.4117L13.7569 15.2155Z" fill="#FFF3A5"/>
<path d="M7.46511 27.4187C7.76745 23.7906 10.8003 21 14.4409 21H33.5591C37.1997 21 40.2326 23.7906 40.5349 27.4187L41 33H7L7.46511 27.4187Z" fill="#00AB4E"/>
<rect x="6" y="32" width="36" height="3" rx="1.5" fill="#FFC54F"/>
<path d="M10 26C10 25.4477 10.4477 25 11 25H13C14.6569 25 16 26.3431 16 28C16 28.5523 15.5523 29 15 29H12C10.8954 29 10 28.1046 10 27V26Z" fill="#FFC54F"/>
<path d="M32 28C32 26.3431 33.3431 25 35 25H37C37.5523 25 38 25.4477 38 26V27C38 28.1046 37.1046 29 36 29H33C32.4477 29 32 28.5523 32 28Z" fill="#FFC54F"/>
<rect x="19" y="26" width="10" height="2" rx="1" fill="#40BD63"/>
<path d="M42.5 35C42.5 39.1425 39.1425 42.5 35 42.5C30.8575 42.5 27.5 39.1425 27.5 35C27.5 30.8575 30.8575 27.5 35 27.5C39.1425 27.5 42.5 30.8575 42.5 35Z" fill="#E07E26" stroke="white"/>
<path fill-rule="evenodd" clip-rule="evenodd" d="M31.8455 34.909V37.0763H30.7V31.5H33.1099C33.7248 31.5 34.1897 31.6437 34.5046 31.9311C34.8194 32.2185 34.9769 32.6337 34.9769 33.1768C34.9769 33.5987 34.8665 33.952 34.6459 34.2367C34.4252 34.5215 34.1141 34.7087 33.7124 34.7983C33.9851 34.8721 34.2157 35.0804 34.4041 35.4232L35.2521 37.0763H33.9876L33.0802 35.2966C33.0058 35.1595 32.9165 35.0606 32.8124 35C32.7083 34.9394 32.5769 34.909 32.4182 34.909H31.8455ZM31.8306 33.9757H32.9389C33.2711 33.9757 33.5116 33.9137 33.6603 33.7898C33.8091 33.6659 33.8835 33.4721 33.8835 33.2085C33.8835 32.9395 33.8091 32.7444 33.6603 32.6232C33.5116 32.5019 33.2711 32.4412 32.9389 32.4412H31.8306V33.9757ZM36.9479 38.5V36.5226C37.057 36.7177 37.212 36.8693 37.4128 36.9774C37.6136 37.0855 37.838 37.1395 38.086 37.1395C38.4033 37.1395 38.6835 37.0578 38.9265 36.8944C39.1694 36.7309 39.3591 36.4976 39.4955 36.1944C39.6318 35.8911 39.7 35.5392 39.7 35.1384C39.7 34.7377 39.6318 34.3831 39.4955 34.0746C39.3591 33.7661 39.1682 33.5262 38.9227 33.3548C38.6773 33.1834 38.3984 33.0977 38.086 33.0977C37.8331 33.0977 37.605 33.1544 37.4017 33.2678C37.1984 33.3812 37.0422 33.538 36.9331 33.7384V33.1927H35.8248V38.5H36.9479ZM37.1488 35.9412C37.2926 36.1337 37.4959 36.2299 37.7587 36.2299C38.0215 36.2299 38.2248 36.1363 38.3686 35.9492C38.5124 35.762 38.5843 35.4917 38.5843 35.1384C38.5843 34.7798 38.5124 34.5017 38.3686 34.304C38.2248 34.1062 38.0215 34.0073 37.7587 34.0073C37.4959 34.0073 37.2926 34.1036 37.1488 34.296C37.005 34.4885 36.9331 34.764 36.9331 35.1226C36.9331 35.4759 37.005 35.7488 37.1488 35.9412Z" fill="white"/>
</svg>
