<svg width="48" height="48" viewBox="0 0 48 48" fill="none" xmlns="http://www.w3.org/2000/svg">
<path d="M8 12C8 9.79086 9.79086 8 12 8H36C38.2091 8 40 9.79086 40 12V38C40 39.1046 39.1046 40 38 40H10C8.89543 40 8 39.1046 8 38V12Z" fill="#00AB4E"/>
<path fill-rule="evenodd" clip-rule="evenodd" d="M31 8H36C38.2091 8 40 9.79086 40 12V38C40 39.1046 39.1046 40 38 40H31V8Z" fill="#00883E"/>
<path fill-rule="evenodd" clip-rule="evenodd" d="M8 14H40V19H8V14Z" fill="#BFD730"/>
<path fill-rule="evenodd" clip-rule="evenodd" d="M31 14H40V19H31V14Z" fill="#98AC26"/>
<path d="M8.5 21.5H39.5" stroke="#00662E" stroke-linecap="round" stroke-dasharray="3"/>
<path d="M13 27C13 25.8954 13.8954 25 15 25H22C23.1046 25 24 25.8954 24 27V40H13V27Z" fill="#98AC26"/>
<mask id="mask0_161_12197" style="mask-type:luminance" maskUnits="userSpaceOnUse" x="13" y="25" width="11" height="15">
<path d="M13 27C13 25.8954 13.8954 25 15 25H22C23.1046 25 24 25.8954 24 27V40H13V27Z" fill="white"/>
</mask>
<g mask="url(#mask0_161_12197)">
<path d="M15 27C15 25.8954 15.8954 25 17 25H24C25.1046 25 26 25.8954 26 27V40H15V27Z" fill="#BFD730"/>
</g>
</svg>
